<mxfile host="app.diagrams.net" agent="Mozilla/5.0 (Windows NT 10.0; Win64; x64; rv:132.0) Gecko/20100101 Firefox/132.0" version="24.8.3">
  <diagram name="Architecture" id="dtDHst8DX_fTAl0wrrc1">
    <mxGraphModel dx="500" dy="1724" grid="1" gridSize="10" guides="1" tooltips="1" connect="1" arrows="1" fold="1" page="0" pageScale="1" pageWidth="827" pageHeight="1169" math="0" shadow="0">
      <root>
        <mxCell id="0" />
        <mxCell id="1" parent="0" />
        <mxCell id="gGudpoKi9HeAovBl45zA-1" value="AWS Cloud" style="points=[[0,0],[0.25,0],[0.5,0],[0.75,0],[1,0],[1,0.25],[1,0.5],[1,0.75],[1,1],[0.75,1],[0.5,1],[0.25,1],[0,1],[0,0.75],[0,0.5],[0,0.25]];outlineConnect=0;gradientColor=none;html=1;whiteSpace=wrap;fontSize=12;fontStyle=0;container=1;pointerEvents=0;collapsible=0;recursiveResize=0;shape=mxgraph.aws4.group;grIcon=mxgraph.aws4.group_aws_cloud_alt;strokeColor=#232F3E;fillColor=none;verticalAlign=top;align=left;spacingLeft=30;fontColor=#232F3E;dashed=0;" vertex="1" parent="1">
          <mxGeometry x="1640" y="-40" width="1760" height="1080" as="geometry" />
        </mxCell>
        <mxCell id="gGudpoKi9HeAovBl45zA-2" value="&lt;b&gt;Region: &lt;/b&gt;PLEASE ADD REGION NAME" style="points=[[0,0],[0.25,0],[0.5,0],[0.75,0],[1,0],[1,0.25],[1,0.5],[1,0.75],[1,1],[0.75,1],[0.5,1],[0.25,1],[0,1],[0,0.75],[0,0.5],[0,0.25]];outlineConnect=0;gradientColor=none;html=1;whiteSpace=wrap;fontSize=12;fontStyle=0;container=1;pointerEvents=0;collapsible=0;recursiveResize=0;shape=mxgraph.aws4.group;grIcon=mxgraph.aws4.group_region;strokeColor=#00A4A6;fillColor=none;verticalAlign=top;align=left;spacingLeft=30;fontColor=#147EBA;dashed=1;" vertex="1" parent="gGudpoKi9HeAovBl45zA-1">
          <mxGeometry x="80" y="40" width="1640" height="1020" as="geometry" />
        </mxCell>
        <mxCell id="gGudpoKi9HeAovBl45zA-3" value="&lt;font color=&quot;#5ca317&quot;&gt;&lt;b&gt;VPC&lt;/b&gt;: PLEASE ADD VPC RANGE&lt;/font&gt;" style="sketch=0;outlineConnect=0;gradientColor=none;html=1;whiteSpace=wrap;fontSize=12;fontStyle=0;shape=mxgraph.aws4.group;grIcon=mxgraph.aws4.group_vpc;strokeColor=#5CA317;fillColor=none;verticalAlign=top;align=left;spacingLeft=30;fontColor=#879196;dashed=0;" vertex="1" parent="gGudpoKi9HeAovBl45zA-2">
          <mxGeometry x="40" y="40" width="1440" height="840" as="geometry" />
        </mxCell>
        <mxCell id="gGudpoKi9HeAovBl45zA-4" style="edgeStyle=orthogonalEdgeStyle;rounded=0;orthogonalLoop=1;jettySize=auto;html=1;" edge="1" parent="gGudpoKi9HeAovBl45zA-2" source="gGudpoKi9HeAovBl45zA-5" target="gGudpoKi9HeAovBl45zA-6">
          <mxGeometry relative="1" as="geometry" />
        </mxCell>
        <mxCell id="gGudpoKi9HeAovBl45zA-5" value="&lt;div&gt;&lt;span style=&quot;background-color: initial;&quot;&gt;Internet &lt;span style=&quot;white-space: pre;&quot;&gt;&#x9;&lt;/span&gt;Gateway&lt;/span&gt;&lt;br&gt;&lt;/div&gt;" style="sketch=0;outlineConnect=0;fontColor=#232F3E;gradientColor=none;fillColor=#8C4FFF;strokeColor=none;dashed=0;verticalLabelPosition=bottom;verticalAlign=top;align=center;html=1;fontSize=12;fontStyle=0;aspect=fixed;pointerEvents=1;shape=mxgraph.aws4.internet_gateway;" vertex="1" parent="gGudpoKi9HeAovBl45zA-2">
          <mxGeometry x="736" y="20" width="48" height="48" as="geometry" />
        </mxCell>
        <mxCell id="gGudpoKi9HeAovBl45zA-6" value="ALB" style="sketch=0;points=[[0,0,0],[0.25,0,0],[0.5,0,0],[0.75,0,0],[1,0,0],[0,1,0],[0.25,1,0],[0.5,1,0],[0.75,1,0],[1,1,0],[0,0.25,0],[0,0.5,0],[0,0.75,0],[1,0.25,0],[1,0.5,0],[1,0.75,0]];outlineConnect=0;fontColor=#232F3E;fillColor=#ED7100;strokeColor=#ffffff;dashed=0;verticalLabelPosition=bottom;verticalAlign=top;align=center;html=1;fontSize=12;fontStyle=0;aspect=fixed;shape=mxgraph.aws4.resourceIcon;resIcon=mxgraph.aws4.elastic_load_balancing;" vertex="1" parent="gGudpoKi9HeAovBl45zA-2">
          <mxGeometry x="735" y="300" width="50" height="50" as="geometry" />
        </mxCell>
        <mxCell id="gGudpoKi9HeAovBl45zA-7" value="&lt;b&gt;Availability Zone:&lt;/b&gt;&amp;nbsp;PLEASE ADD AZs NAME" style="fillColor=none;strokeColor=#147EBA;dashed=1;verticalAlign=top;fontStyle=0;fontColor=#147EBA;whiteSpace=wrap;html=1;" vertex="1" parent="gGudpoKi9HeAovBl45zA-2">
          <mxGeometry x="80" y="240" width="520" height="600" as="geometry" />
        </mxCell>
        <mxCell id="gGudpoKi9HeAovBl45zA-8" value="&lt;b&gt;Availability Zone:&lt;/b&gt;&amp;nbsp;PLEASE ADD AZs NAME" style="fillColor=none;strokeColor=#147EBA;dashed=1;verticalAlign=top;fontStyle=0;fontColor=#147EBA;whiteSpace=wrap;html=1;" vertex="1" parent="gGudpoKi9HeAovBl45zA-2">
          <mxGeometry x="920" y="240" width="520" height="600" as="geometry" />
        </mxCell>
        <mxCell id="gGudpoKi9HeAovBl45zA-9" value="&lt;b&gt;Public subnet: &lt;/b&gt;PLEASE ADD SUBNET RANGE" style="points=[[0,0],[0.25,0],[0.5,0],[0.75,0],[1,0],[1,0.25],[1,0.5],[1,0.75],[1,1],[0.75,1],[0.5,1],[0.25,1],[0,1],[0,0.75],[0,0.5],[0,0.25]];outlineConnect=0;gradientColor=none;html=1;whiteSpace=wrap;fontSize=12;fontStyle=0;container=1;pointerEvents=0;collapsible=0;recursiveResize=0;shape=mxgraph.aws4.group;grIcon=mxgraph.aws4.group_security_group;grStroke=0;strokeColor=#7AA116;fillColor=#F2F6E8;verticalAlign=top;align=left;spacingLeft=30;fontColor=#248814;dashed=0;" vertex="1" parent="gGudpoKi9HeAovBl45zA-2">
          <mxGeometry x="120" y="280" width="440" height="130" as="geometry" />
        </mxCell>
        <mxCell id="gGudpoKi9HeAovBl45zA-10" value="Bastion Host" style="sketch=0;points=[[0,0,0],[0.25,0,0],[0.5,0,0],[0.75,0,0],[1,0,0],[0,1,0],[0.25,1,0],[0.5,1,0],[0.75,1,0],[1,1,0],[0,0.25,0],[0,0.5,0],[0,0.75,0],[1,0.25,0],[1,0.5,0],[1,0.75,0]];outlineConnect=0;fontColor=#232F3E;fillColor=#ED7100;strokeColor=#ffffff;dashed=0;verticalLabelPosition=bottom;verticalAlign=top;align=center;html=1;fontSize=12;fontStyle=0;aspect=fixed;shape=mxgraph.aws4.resourceIcon;resIcon=mxgraph.aws4.ec2;" vertex="1" parent="gGudpoKi9HeAovBl45zA-9">
          <mxGeometry x="200" y="46" width="38" height="38" as="geometry" />
        </mxCell>
        <mxCell id="gGudpoKi9HeAovBl45zA-11" value="&lt;b&gt;Public subnet:&amp;nbsp;&lt;/b&gt;PLEASE ADD SUBNET RANGE" style="points=[[0,0],[0.25,0],[0.5,0],[0.75,0],[1,0],[1,0.25],[1,0.5],[1,0.75],[1,1],[0.75,1],[0.5,1],[0.25,1],[0,1],[0,0.75],[0,0.5],[0,0.25]];outlineConnect=0;gradientColor=none;html=1;whiteSpace=wrap;fontSize=12;fontStyle=0;container=1;pointerEvents=0;collapsible=0;recursiveResize=0;shape=mxgraph.aws4.group;grIcon=mxgraph.aws4.group_security_group;grStroke=0;strokeColor=#7AA116;fillColor=#F2F6E8;verticalAlign=top;align=left;spacingLeft=30;fontColor=#248814;dashed=0;" vertex="1" parent="gGudpoKi9HeAovBl45zA-2">
          <mxGeometry x="960" y="280" width="440" height="120" as="geometry" />
        </mxCell>
        <mxCell id="gGudpoKi9HeAovBl45zA-12" value="&lt;b&gt;Private subnet:&lt;/b&gt;&amp;nbsp;PLEASE ADD SUBNET RANGE" style="points=[[0,0],[0.25,0],[0.5,0],[0.75,0],[1,0],[1,0.25],[1,0.5],[1,0.75],[1,1],[0.75,1],[0.5,1],[0.25,1],[0,1],[0,0.75],[0,0.5],[0,0.25]];outlineConnect=0;gradientColor=none;html=1;whiteSpace=wrap;fontSize=12;fontStyle=0;container=1;pointerEvents=0;collapsible=0;recursiveResize=0;shape=mxgraph.aws4.group;grIcon=mxgraph.aws4.group_security_group;grStroke=0;strokeColor=#00A4A6;fillColor=#E6F6F7;verticalAlign=top;align=left;spacingLeft=30;fontColor=#147EBA;dashed=0;" vertex="1" parent="gGudpoKi9HeAovBl45zA-2">
          <mxGeometry x="120" y="440" width="440" height="360" as="geometry" />
        </mxCell>
        <mxCell id="gGudpoKi9HeAovBl45zA-13" value="&lt;b&gt;Private subnet:&lt;/b&gt;&amp;nbsp;PLEASE ADD SUBNET RANGE" style="points=[[0,0],[0.25,0],[0.5,0],[0.75,0],[1,0],[1,0.25],[1,0.5],[1,0.75],[1,1],[0.75,1],[0.5,1],[0.25,1],[0,1],[0,0.75],[0,0.5],[0,0.25]];outlineConnect=0;gradientColor=none;html=1;whiteSpace=wrap;fontSize=12;fontStyle=0;container=1;pointerEvents=0;collapsible=0;recursiveResize=0;shape=mxgraph.aws4.group;grIcon=mxgraph.aws4.group_security_group;grStroke=0;strokeColor=#00A4A6;fillColor=#E6F6F7;verticalAlign=top;align=left;spacingLeft=30;fontColor=#147EBA;dashed=0;" vertex="1" parent="gGudpoKi9HeAovBl45zA-2">
          <mxGeometry x="960" y="440" width="440" height="360" as="geometry" />
        </mxCell>
        <mxCell id="gGudpoKi9HeAovBl45zA-14" style="edgeStyle=orthogonalEdgeStyle;rounded=0;orthogonalLoop=1;jettySize=auto;html=1;" edge="1" parent="gGudpoKi9HeAovBl45zA-2" source="gGudpoKi9HeAovBl45zA-15">
          <mxGeometry relative="1" as="geometry">
            <mxPoint x="760" y="910" as="targetPoint" />
          </mxGeometry>
        </mxCell>
        <mxCell id="gGudpoKi9HeAovBl45zA-15" value="Endpoints" style="sketch=0;outlineConnect=0;fontColor=#232F3E;gradientColor=none;fillColor=#8C4FFF;strokeColor=none;dashed=0;verticalLabelPosition=bottom;verticalAlign=top;align=center;html=1;fontSize=12;fontStyle=0;aspect=fixed;pointerEvents=1;shape=mxgraph.aws4.endpoints;" vertex="1" parent="gGudpoKi9HeAovBl45zA-2">
          <mxGeometry x="500" y="740" width="38" height="38" as="geometry" />
        </mxCell>
        <mxCell id="gGudpoKi9HeAovBl45zA-16" style="edgeStyle=orthogonalEdgeStyle;rounded=0;orthogonalLoop=1;jettySize=auto;html=1;" edge="1" parent="gGudpoKi9HeAovBl45zA-2" source="gGudpoKi9HeAovBl45zA-17">
          <mxGeometry relative="1" as="geometry">
            <mxPoint x="760" y="910" as="targetPoint" />
          </mxGeometry>
        </mxCell>
        <mxCell id="gGudpoKi9HeAovBl45zA-17" value="Endpoints" style="sketch=0;outlineConnect=0;fontColor=#232F3E;gradientColor=none;fillColor=#8C4FFF;strokeColor=none;dashed=0;verticalLabelPosition=bottom;verticalAlign=top;align=center;html=1;fontSize=12;fontStyle=0;aspect=fixed;pointerEvents=1;shape=mxgraph.aws4.endpoints;" vertex="1" parent="gGudpoKi9HeAovBl45zA-2">
          <mxGeometry x="980" y="740" width="38" height="38" as="geometry" />
        </mxCell>
        <mxCell id="gGudpoKi9HeAovBl45zA-18" value="ECS Cluster" style="points=[[0,0],[0.25,0],[0.5,0],[0.75,0],[1,0],[1,0.25],[1,0.5],[1,0.75],[1,1],[0.75,1],[0.5,1],[0.25,1],[0,1],[0,0.75],[0,0.5],[0,0.25]];outlineConnect=0;gradientColor=none;html=1;whiteSpace=wrap;fontSize=12;fontStyle=0;container=1;pointerEvents=0;collapsible=0;recursiveResize=0;shape=mxgraph.aws4.group;grIcon=mxgraph.aws4.group_ec2_instance_contents;strokeColor=#D86613;fillColor=none;verticalAlign=top;align=left;spacingLeft=30;fontColor=#D86613;dashed=0;" vertex="1" parent="gGudpoKi9HeAovBl45zA-2">
          <mxGeometry x="100" y="480" width="1320" height="240" as="geometry" />
        </mxCell>
        <mxCell id="gGudpoKi9HeAovBl45zA-19" value="ECS EC2 launch type" style="points=[[0,0],[0.25,0],[0.5,0],[0.75,0],[1,0],[1,0.25],[1,0.5],[1,0.75],[1,1],[0.75,1],[0.5,1],[0.25,1],[0,1],[0,0.75],[0,0.5],[0,0.25]];outlineConnect=0;gradientColor=none;html=1;whiteSpace=wrap;fontSize=12;fontStyle=0;container=1;pointerEvents=0;collapsible=0;recursiveResize=0;shape=mxgraph.aws4.group;grIcon=mxgraph.aws4.group_ec2_instance_contents;strokeColor=#D86613;fillColor=none;verticalAlign=top;align=left;spacingLeft=30;fontColor=#D86613;dashed=0;" vertex="1" parent="gGudpoKi9HeAovBl45zA-18">
          <mxGeometry x="70" y="40" width="340" height="170" as="geometry" />
        </mxCell>
        <mxCell id="gGudpoKi9HeAovBl45zA-20" value="Services" style="sketch=0;outlineConnect=0;fontColor=#232F3E;gradientColor=none;fillColor=#ED7100;strokeColor=none;dashed=0;verticalLabelPosition=bottom;verticalAlign=top;align=center;html=1;fontSize=12;fontStyle=0;aspect=fixed;pointerEvents=1;shape=mxgraph.aws4.container_2;" vertex="1" parent="gGudpoKi9HeAovBl45zA-19">
          <mxGeometry x="250" y="50" width="48" height="31" as="geometry" />
        </mxCell>
        <mxCell id="gGudpoKi9HeAovBl45zA-21" value="ECS agent" style="sketch=0;outlineConnect=0;fontColor=#232F3E;gradientColor=none;fillColor=#ED7100;strokeColor=none;dashed=0;verticalLabelPosition=bottom;verticalAlign=top;align=center;html=1;fontSize=12;fontStyle=0;aspect=fixed;pointerEvents=1;shape=mxgraph.aws4.container_2;" vertex="1" parent="gGudpoKi9HeAovBl45zA-19">
          <mxGeometry x="30" y="50" width="48" height="31" as="geometry" />
        </mxCell>
        <mxCell id="gGudpoKi9HeAovBl45zA-22" value="Container" style="sketch=0;outlineConnect=0;fontColor=#232F3E;gradientColor=none;fillColor=#ED7100;strokeColor=none;dashed=0;verticalLabelPosition=bottom;verticalAlign=top;align=center;html=1;fontSize=12;fontStyle=0;aspect=fixed;pointerEvents=1;shape=mxgraph.aws4.container_1;" vertex="1" parent="gGudpoKi9HeAovBl45zA-19">
          <mxGeometry x="210" y="120" width="30.97" height="20" as="geometry" />
        </mxCell>
        <mxCell id="gGudpoKi9HeAovBl45zA-23" value="Container" style="sketch=0;outlineConnect=0;fontColor=#232F3E;gradientColor=none;fillColor=#ED7100;strokeColor=none;dashed=0;verticalLabelPosition=bottom;verticalAlign=top;align=center;html=1;fontSize=12;fontStyle=0;aspect=fixed;pointerEvents=1;shape=mxgraph.aws4.container_1;" vertex="1" parent="gGudpoKi9HeAovBl45zA-19">
          <mxGeometry x="150" y="120" width="30.97" height="20" as="geometry" />
        </mxCell>
        <mxCell id="gGudpoKi9HeAovBl45zA-24" value="Container" style="sketch=0;outlineConnect=0;fontColor=#232F3E;gradientColor=none;fillColor=#ED7100;strokeColor=none;dashed=0;verticalLabelPosition=bottom;verticalAlign=top;align=center;html=1;fontSize=12;fontStyle=0;aspect=fixed;pointerEvents=1;shape=mxgraph.aws4.container_1;" vertex="1" parent="gGudpoKi9HeAovBl45zA-19">
          <mxGeometry x="90" y="120" width="30.97" height="20" as="geometry" />
        </mxCell>
        <mxCell id="gGudpoKi9HeAovBl45zA-25" style="edgeStyle=orthogonalEdgeStyle;rounded=0;orthogonalLoop=1;jettySize=auto;html=1;exitX=1;exitY=0.5;exitDx=0;exitDy=0;exitPerimeter=0;" edge="1" parent="gGudpoKi9HeAovBl45zA-18" source="gGudpoKi9HeAovBl45zA-6">
          <mxGeometry relative="1" as="geometry">
            <mxPoint x="696" y="-300" as="sourcePoint" />
            <mxPoint x="950" y="105" as="targetPoint" />
            <Array as="points">
              <mxPoint x="730" y="-155" />
              <mxPoint x="730" y="105" />
            </Array>
          </mxGeometry>
        </mxCell>
        <mxCell id="gGudpoKi9HeAovBl45zA-26" value="ECS EC2 launch type" style="points=[[0,0],[0.25,0],[0.5,0],[0.75,0],[1,0],[1,0.25],[1,0.5],[1,0.75],[1,1],[0.75,1],[0.5,1],[0.25,1],[0,1],[0,0.75],[0,0.5],[0,0.25]];outlineConnect=0;gradientColor=none;html=1;whiteSpace=wrap;fontSize=12;fontStyle=0;container=1;pointerEvents=0;collapsible=0;recursiveResize=0;shape=mxgraph.aws4.group;grIcon=mxgraph.aws4.group_ec2_instance_contents;strokeColor=#D86613;fillColor=none;verticalAlign=top;align=left;spacingLeft=30;fontColor=#D86613;dashed=0;" vertex="1" parent="gGudpoKi9HeAovBl45zA-2">
          <mxGeometry x="1010" y="520" width="340" height="170" as="geometry" />
        </mxCell>
        <mxCell id="gGudpoKi9HeAovBl45zA-27" value="Container" style="sketch=0;outlineConnect=0;fontColor=#232F3E;gradientColor=none;fillColor=#ED7100;strokeColor=none;dashed=0;verticalLabelPosition=bottom;verticalAlign=top;align=center;html=1;fontSize=12;fontStyle=0;aspect=fixed;pointerEvents=1;shape=mxgraph.aws4.container_1;" vertex="1" parent="gGudpoKi9HeAovBl45zA-26">
          <mxGeometry x="100" y="120" width="30.97" height="20" as="geometry" />
        </mxCell>
        <mxCell id="gGudpoKi9HeAovBl45zA-28" value="Container" style="sketch=0;outlineConnect=0;fontColor=#232F3E;gradientColor=none;fillColor=#ED7100;strokeColor=none;dashed=0;verticalLabelPosition=bottom;verticalAlign=top;align=center;html=1;fontSize=12;fontStyle=0;aspect=fixed;pointerEvents=1;shape=mxgraph.aws4.container_1;" vertex="1" parent="gGudpoKi9HeAovBl45zA-26">
          <mxGeometry x="160" y="120" width="30.97" height="20" as="geometry" />
        </mxCell>
        <mxCell id="gGudpoKi9HeAovBl45zA-29" value="ECS agent" style="sketch=0;outlineConnect=0;fontColor=#232F3E;gradientColor=none;fillColor=#ED7100;strokeColor=none;dashed=0;verticalLabelPosition=bottom;verticalAlign=top;align=center;html=1;fontSize=12;fontStyle=0;aspect=fixed;pointerEvents=1;shape=mxgraph.aws4.container_2;" vertex="1" parent="gGudpoKi9HeAovBl45zA-26">
          <mxGeometry x="278" y="50" width="48" height="31" as="geometry" />
        </mxCell>
        <mxCell id="gGudpoKi9HeAovBl45zA-30" value="Container" style="sketch=0;outlineConnect=0;fontColor=#232F3E;gradientColor=none;fillColor=#ED7100;strokeColor=none;dashed=0;verticalLabelPosition=bottom;verticalAlign=top;align=center;html=1;fontSize=12;fontStyle=0;aspect=fixed;pointerEvents=1;shape=mxgraph.aws4.container_1;" vertex="1" parent="gGudpoKi9HeAovBl45zA-26">
          <mxGeometry x="220" y="120" width="30.97" height="20" as="geometry" />
        </mxCell>
        <mxCell id="gGudpoKi9HeAovBl45zA-31" style="edgeStyle=orthogonalEdgeStyle;rounded=0;orthogonalLoop=1;jettySize=auto;html=1;entryX=-0.023;entryY=0.611;entryDx=0;entryDy=0;entryPerimeter=0;" edge="1" parent="gGudpoKi9HeAovBl45zA-2">
          <mxGeometry relative="1" as="geometry">
            <mxPoint x="221.9999999999991" y="600.9096988445094" as="sourcePoint" />
            <mxPoint x="497.1259999999993" y="763.2179999999998" as="targetPoint" />
            <Array as="points">
              <mxPoint x="222" y="763" />
            </Array>
          </mxGeometry>
        </mxCell>
        <mxCell id="gGudpoKi9HeAovBl45zA-32" style="edgeStyle=orthogonalEdgeStyle;rounded=0;orthogonalLoop=1;jettySize=auto;html=1;exitX=0;exitY=0.5;exitDx=0;exitDy=0;exitPerimeter=0;" edge="1" parent="gGudpoKi9HeAovBl45zA-2" source="gGudpoKi9HeAovBl45zA-6" target="gGudpoKi9HeAovBl45zA-20">
          <mxGeometry relative="1" as="geometry">
            <mxPoint x="746" y="176" as="sourcePoint" />
            <mxPoint x="478" y="596" as="targetPoint" />
            <Array as="points">
              <mxPoint x="700" y="325" />
              <mxPoint x="700" y="586" />
            </Array>
          </mxGeometry>
        </mxCell>
        <mxCell id="gGudpoKi9HeAovBl45zA-33" style="edgeStyle=orthogonalEdgeStyle;rounded=0;orthogonalLoop=1;jettySize=auto;html=1;exitX=0.5;exitY=1;exitDx=0;exitDy=0;exitPerimeter=0;strokeColor=#FF8000;" edge="1" parent="gGudpoKi9HeAovBl45zA-2" source="gGudpoKi9HeAovBl45zA-10" target="gGudpoKi9HeAovBl45zA-19">
          <mxGeometry relative="1" as="geometry" />
        </mxCell>
        <mxCell id="gGudpoKi9HeAovBl45zA-34" value="ECS" style="sketch=0;points=[[0,0,0],[0.25,0,0],[0.5,0,0],[0.75,0,0],[1,0,0],[0,1,0],[0.25,1,0],[0.5,1,0],[0.75,1,0],[1,1,0],[0,0.25,0],[0,0.5,0],[0,0.75,0],[1,0.25,0],[1,0.5,0],[1,0.75,0]];outlineConnect=0;fontColor=#232F3E;fillColor=#ED7100;strokeColor=#ffffff;dashed=0;verticalLabelPosition=bottom;verticalAlign=top;align=center;html=1;fontSize=12;fontStyle=0;aspect=fixed;shape=mxgraph.aws4.resourceIcon;resIcon=mxgraph.aws4.ecs;" vertex="1" parent="gGudpoKi9HeAovBl45zA-2">
          <mxGeometry x="549.49" y="930" width="60" height="60" as="geometry" />
        </mxCell>
        <mxCell id="gGudpoKi9HeAovBl45zA-35" value="ECR" style="sketch=0;points=[[0,0,0],[0.25,0,0],[0.5,0,0],[0.75,0,0],[1,0,0],[0,1,0],[0.25,1,0],[0.5,1,0],[0.75,1,0],[1,1,0],[0,0.25,0],[0,0.5,0],[0,0.75,0],[1,0.25,0],[1,0.5,0],[1,0.75,0]];outlineConnect=0;fontColor=#232F3E;fillColor=#ED7100;strokeColor=#ffffff;dashed=0;verticalLabelPosition=bottom;verticalAlign=top;align=center;html=1;fontSize=12;fontStyle=0;aspect=fixed;shape=mxgraph.aws4.resourceIcon;resIcon=mxgraph.aws4.ecr;" vertex="1" parent="gGudpoKi9HeAovBl45zA-2">
          <mxGeometry x="671.49" y="930" width="60" height="60" as="geometry" />
        </mxCell>
        <mxCell id="gGudpoKi9HeAovBl45zA-36" value="S3" style="sketch=0;points=[[0,0,0],[0.25,0,0],[0.5,0,0],[0.75,0,0],[1,0,0],[0,1,0],[0.25,1,0],[0.5,1,0],[0.75,1,0],[1,1,0],[0,0.25,0],[0,0.5,0],[0,0.75,0],[1,0.25,0],[1,0.5,0],[1,0.75,0]];outlineConnect=0;fontColor=#232F3E;fillColor=#7AA116;strokeColor=#ffffff;dashed=0;verticalLabelPosition=bottom;verticalAlign=top;align=center;html=1;fontSize=12;fontStyle=0;aspect=fixed;shape=mxgraph.aws4.resourceIcon;resIcon=mxgraph.aws4.s3;" vertex="1" parent="gGudpoKi9HeAovBl45zA-2">
          <mxGeometry x="792.52" y="930" width="60" height="60" as="geometry" />
        </mxCell>
        <mxCell id="gGudpoKi9HeAovBl45zA-37" value="CloudWatch" style="sketch=0;points=[[0,0,0],[0.25,0,0],[0.5,0,0],[0.75,0,0],[1,0,0],[0,1,0],[0.25,1,0],[0.5,1,0],[0.75,1,0],[1,1,0],[0,0.25,0],[0,0.5,0],[0,0.75,0],[1,0.25,0],[1,0.5,0],[1,0.75,0]];points=[[0,0,0],[0.25,0,0],[0.5,0,0],[0.75,0,0],[1,0,0],[0,1,0],[0.25,1,0],[0.5,1,0],[0.75,1,0],[1,1,0],[0,0.25,0],[0,0.5,0],[0,0.75,0],[1,0.25,0],[1,0.5,0],[1,0.75,0]];outlineConnect=0;fontColor=#232F3E;fillColor=#E7157B;strokeColor=#ffffff;dashed=0;verticalLabelPosition=bottom;verticalAlign=top;align=center;html=1;fontSize=12;fontStyle=0;aspect=fixed;shape=mxgraph.aws4.resourceIcon;resIcon=mxgraph.aws4.cloudwatch_2;" vertex="1" parent="gGudpoKi9HeAovBl45zA-2">
          <mxGeometry x="1030" y="930" width="60" height="60" as="geometry" />
        </mxCell>
        <mxCell id="gGudpoKi9HeAovBl45zA-38" value="" style="endArrow=classic;startArrow=classic;html=1;rounded=0;exitX=0.5;exitY=0;exitDx=0;exitDy=0;exitPerimeter=0;entryX=0.5;entryY=0;entryDx=0;entryDy=0;entryPerimeter=0;" edge="1" parent="gGudpoKi9HeAovBl45zA-2" source="gGudpoKi9HeAovBl45zA-34" target="gGudpoKi9HeAovBl45zA-37">
          <mxGeometry width="50" height="50" relative="1" as="geometry">
            <mxPoint x="920" y="460" as="sourcePoint" />
            <mxPoint x="970" y="410" as="targetPoint" />
            <Array as="points">
              <mxPoint x="580" y="910" />
              <mxPoint x="760" y="910" />
              <mxPoint x="1060" y="910" />
            </Array>
          </mxGeometry>
        </mxCell>
        <mxCell id="gGudpoKi9HeAovBl45zA-39" style="edgeStyle=orthogonalEdgeStyle;rounded=0;orthogonalLoop=1;jettySize=auto;html=1;" edge="1" parent="gGudpoKi9HeAovBl45zA-2">
          <mxGeometry relative="1" as="geometry">
            <mxPoint x="1310" y="610" as="sourcePoint" />
            <mxPoint x="1015" y="758.9999999999995" as="targetPoint" />
            <Array as="points">
              <mxPoint x="1310" y="601" />
              <mxPoint x="1310" y="759" />
            </Array>
          </mxGeometry>
        </mxCell>
        <mxCell id="gGudpoKi9HeAovBl45zA-40" value="Services" style="sketch=0;outlineConnect=0;fontColor=#232F3E;gradientColor=none;fillColor=#ED7100;strokeColor=none;dashed=0;verticalLabelPosition=bottom;verticalAlign=top;align=center;html=1;fontSize=12;fontStyle=0;aspect=fixed;pointerEvents=1;shape=mxgraph.aws4.container_2;" vertex="1" parent="gGudpoKi9HeAovBl45zA-2">
          <mxGeometry x="1050" y="570" width="48" height="31" as="geometry" />
        </mxCell>
        <mxCell id="gGudpoKi9HeAovBl45zA-41" style="edgeStyle=orthogonalEdgeStyle;rounded=0;orthogonalLoop=1;jettySize=auto;html=1;exitX=0.5;exitY=1;exitDx=0;exitDy=0;exitPerimeter=0;" edge="1" parent="gGudpoKi9HeAovBl45zA-2" source="gGudpoKi9HeAovBl45zA-42" target="gGudpoKi9HeAovBl45zA-44">
          <mxGeometry relative="1" as="geometry" />
        </mxCell>
        <mxCell id="gGudpoKi9HeAovBl45zA-42" value="CloudWatch" style="sketch=0;points=[[0,0,0],[0.25,0,0],[0.5,0,0],[0.75,0,0],[1,0,0],[0,1,0],[0.25,1,0],[0.5,1,0],[0.75,1,0],[1,1,0],[0,0.25,0],[0,0.5,0],[0,0.75,0],[1,0.25,0],[1,0.5,0],[1,0.75,0]];points=[[0,0,0],[0.25,0,0],[0.5,0,0],[0.75,0,0],[1,0,0],[0,1,0],[0.25,1,0],[0.5,1,0],[0.75,1,0],[1,1,0],[0,0.25,0],[0,0.5,0],[0,0.75,0],[1,0.25,0],[1,0.5,0],[1,0.75,0]];outlineConnect=0;fontColor=#232F3E;fillColor=#E7157B;strokeColor=#ffffff;dashed=0;verticalLabelPosition=bottom;verticalAlign=top;align=center;html=1;fontSize=12;fontStyle=0;aspect=fixed;shape=mxgraph.aws4.resourceIcon;resIcon=mxgraph.aws4.cloudwatch_2;" vertex="1" parent="gGudpoKi9HeAovBl45zA-2">
          <mxGeometry x="1550" y="520" width="40" height="40" as="geometry" />
        </mxCell>
        <mxCell id="gGudpoKi9HeAovBl45zA-43" style="edgeStyle=orthogonalEdgeStyle;rounded=0;orthogonalLoop=1;jettySize=auto;html=1;entryX=1;entryY=0.75;entryDx=0;entryDy=0;" edge="1" parent="gGudpoKi9HeAovBl45zA-2" source="gGudpoKi9HeAovBl45zA-44" target="gGudpoKi9HeAovBl45zA-18">
          <mxGeometry relative="1" as="geometry" />
        </mxCell>
        <mxCell id="gGudpoKi9HeAovBl45zA-44" value="AutoScaling" style="sketch=0;outlineConnect=0;fontColor=#232F3E;gradientColor=none;fillColor=#ED7100;strokeColor=none;dashed=0;verticalLabelPosition=bottom;verticalAlign=top;align=center;html=1;fontSize=12;fontStyle=0;aspect=fixed;pointerEvents=1;shape=mxgraph.aws4.auto_scaling2;" vertex="1" parent="gGudpoKi9HeAovBl45zA-2">
          <mxGeometry x="1546" y="637" width="48" height="48" as="geometry" />
        </mxCell>
        <mxCell id="gGudpoKi9HeAovBl45zA-45" style="edgeStyle=orthogonalEdgeStyle;rounded=0;orthogonalLoop=1;jettySize=auto;html=1;exitX=1;exitY=0.25;exitDx=0;exitDy=0;entryX=0;entryY=0.5;entryDx=0;entryDy=0;entryPerimeter=0;" edge="1" parent="gGudpoKi9HeAovBl45zA-2" source="gGudpoKi9HeAovBl45zA-18" target="gGudpoKi9HeAovBl45zA-42">
          <mxGeometry relative="1" as="geometry" />
        </mxCell>
        <mxCell id="gGudpoKi9HeAovBl45zA-46" value="DynamoDB" style="sketch=0;points=[[0,0,0],[0.25,0,0],[0.5,0,0],[0.75,0,0],[1,0,0],[0,1,0],[0.25,1,0],[0.5,1,0],[0.75,1,0],[1,1,0],[0,0.25,0],[0,0.5,0],[0,0.75,0],[1,0.25,0],[1,0.5,0],[1,0.75,0]];outlineConnect=0;fontColor=#232F3E;fillColor=#C925D1;strokeColor=#ffffff;dashed=0;verticalLabelPosition=bottom;verticalAlign=top;align=center;html=1;fontSize=12;fontStyle=0;aspect=fixed;shape=mxgraph.aws4.resourceIcon;resIcon=mxgraph.aws4.dynamodb;" vertex="1" parent="gGudpoKi9HeAovBl45zA-2">
          <mxGeometry x="910" y="930" width="60" height="60" as="geometry" />
        </mxCell>
        <mxCell id="gGudpoKi9HeAovBl45zA-47" style="edgeStyle=orthogonalEdgeStyle;rounded=0;orthogonalLoop=1;jettySize=auto;html=1;exitX=1;exitY=0.25;exitDx=0;exitDy=0;exitPerimeter=0;strokeColor=#FF8000;" edge="1" parent="gGudpoKi9HeAovBl45zA-2">
          <mxGeometry relative="1" as="geometry">
            <mxPoint x="358" y="354.5000000000002" as="sourcePoint" />
            <mxPoint x="1180" y="520" as="targetPoint" />
          </mxGeometry>
        </mxCell>
        <mxCell id="gGudpoKi9HeAovBl45zA-48" value="" style="curved=1;endArrow=classic;html=1;rounded=0;" edge="1" parent="gGudpoKi9HeAovBl45zA-2" target="gGudpoKi9HeAovBl45zA-49">
          <mxGeometry width="50" height="50" relative="1" as="geometry">
            <mxPoint x="784" y="300" as="sourcePoint" />
            <mxPoint x="834" y="250" as="targetPoint" />
            <Array as="points">
              <mxPoint x="834" y="300" />
              <mxPoint x="784" y="250" />
            </Array>
          </mxGeometry>
        </mxCell>
        <mxCell id="gGudpoKi9HeAovBl45zA-49" value="&lt;font style=&quot;font-size: 10px;&quot;&gt;ALB sits in the Public Subnets&lt;/font&gt;" style="text;html=1;align=center;verticalAlign=middle;whiteSpace=wrap;rounded=0;" vertex="1" parent="gGudpoKi9HeAovBl45zA-2">
          <mxGeometry x="820" y="235" width="60" height="30" as="geometry" />
        </mxCell>
        <mxCell id="gGudpoKi9HeAovBl45zA-50" style="edgeStyle=orthogonalEdgeStyle;rounded=0;orthogonalLoop=1;jettySize=auto;html=1;exitX=0;exitY=0.5;exitDx=0;exitDy=0;strokeColor=#FF8000;" edge="1" parent="1">
          <mxGeometry relative="1" as="geometry">
            <mxPoint x="2647" y="-149.99999999999977" as="sourcePoint" />
            <mxPoint x="2487" y="20.00054657253463" as="targetPoint" />
          </mxGeometry>
        </mxCell>
        <mxCell id="gGudpoKi9HeAovBl45zA-51" value="Admin" style="shape=image;editableCssRules=.*;verticalLabelPosition=bottom;labelBackgroundColor=default;verticalAlign=top;aspect=fixed;imageAspect=0;image=data:image/svg+xml,PHN2ZyB4bWxucz0iaHR0cDovL3d3dy53My5vcmcvMjAwMC9zdmciIHZpZXdCb3g9Ii0wLjUgLTAuNSAyNC4yMzMgMjgiIGhlaWdodD0iMjgiIHdpZHRoPSIyNC4yMzMiPiYjeGE7CSAgPHN0eWxlIHR5cGU9InRleHQvY3NzIj4mI3hhOwkJLnN0MHtzdG9wLWNvbG9yOiMwMGNlYWM7fSYjeGE7CQkuc3Qxe3N0b3AtY29sb3I6IzA3ODM4Zjt9JiN4YTsJICA8L3N0eWxlPiYjeGE7CTxkZWZzPiYjeGE7CQk8bGluZWFyR3JhZGllbnQgZ3JhZGllbnRVbml0cz0idXNlclNwYWNlT25Vc2UiIHkyPSIyMi4yMjkiIHgyPSIyMi45NSIgeTE9IjMuNDc0IiB4MT0iMS42OTgiIGlkPSJBIj4mI3hhOwkJCTxzdG9wIGNsYXNzPSJzdDAiLz4mI3hhOwkJCTxzdG9wIGNsYXNzPSJzdDEiIG9mZnNldD0iMSIvPiYjeGE7CQk8L2xpbmVhckdyYWRpZW50PiYjeGE7CTwvZGVmcz4mI3hhOwk8cGF0aCBmaWxsPSJ1cmwoI0EpIiBkPSJNMTUuNTUyIDExLjYwOGwtLjkzMS0uNDM4aC4wMDJhNy4wMyA3LjAzIDAgMCAwIDEuNDgtMi4xOTJjLjQwMS0uODQuNjAzLTEuNzUzLjYwMy0yLjczOSAwLS45NS0uMTg0LTEuODI3LS41NDktMi42M2E2LjQ1IDYuNDUgMCAwIDAtMS40MjQtMi4xMzdDMTQuMTExLjg1MiAxMy4zOTkuMzc3IDEyLjU5Ni4wNDlBNi4yNyA2LjI3IDAgMCAwIDkuOTY2LS41Yy0uOTE0IDAtMS43OS4xODItMi42My41NDdhNi4zMiA2LjMyIDAgMCAwLTIuMTkyIDEuNDI1QTcuOCA3LjggMCAwIDAgMy43MTkgMy42MWMtLjM2NS44MDMtLjU0NyAxLjY4LS41NDcgMi42M2E2LjYzIDYuNjMgMCAwIDAgLjYwMSAyLjc5M2MuMzk3LjgzMy45NTYgMS41NzggMS42NDUgMi4xOTItMS43NTMuNjk0LTMuMTc3IDEuODQ2LTQuMjczIDMuNDUyQy4wNDkgMTYuMjQ4LS41IDE4LjA1NS0uNSAyMC4xMDF2Mi43NGMtLjAwOS4zNC4xMDguNjcyLjMyOC45MzFhMS4zOCAxLjM4IDAgMCAwIC45MzMuMzI4aDkuMzFjLjE1Mi4wMDQuMzA0LS4wMjMuNDQ1LS4wOHMuMjctLjE0Mi4zNzctLjI1YTEuMjcgMS4yNyAwIDAgMCAuMzg0LS45MjkgMS4wNCAxLjA0IDAgMCAwLS4zODQtLjgyMmMtLjIxOS0uMjU2LS40OTMtLjM4NC0uODIyLS4zODRIMS45NjZ2LTEuNTM0YzAtLjk4Ny4xNjMtMS44OTkuNDkxLTIuNzQuMzQxLS44MzkuODQzLTEuNjAyIDEuNDgtMi4yNDYuNjIxLS42NTggMS4zMzQtMS4xNjggMi4xMzctMS41MzRhNi42NyA2LjY3IDAgMCAxIDIuNjg0LS41NDdoMi42M2MuODA2LS4wMDYgMS42MDYuMTQyIDIuMzU3LjQzOC43NjYuMjU2IDEuMzY5LjU4NCAxLjgwOC45ODdhMi41OCAyLjU4IDAgMCAwIC42NTcuNDkxYy4xOTguMDY3LjM5OS4xMjIuNjAzLjE2NS4yOTMgMCAuNTY2LS4xMjguODIyLS4zODIuMTgyLS4xODIuMjczLS4zODQuMjczLS42MDN2LS4xNjVjLS4wMDgtLjM0Ny0uMTQ1LS42NzktLjM4NC0uOTMxYTUuMTggNS4xOCAwIDAgMC0uOTMxLS44MjIgNC4zMSA0LjMxIDAgMCAwLTEuMDQxLS42MDN6bS0yLjU3Ni0yLjMwMmMtLjgzOC44NDItMS44NDQgMS4yNjItMy4wMTIgMS4yNjJ2LS4wMDJjLTEuMTY5IDAtMi4xOTItLjQxOS0zLjA2OC0xLjI1OUE0LjE4IDQuMTggMCAwIDEgNS42MzUgNi4yNGE0LjExIDQuMTEgMCAwIDEgMS4yNjEtMy4wMTRjLjg3Ny0uODQgMS44OTktMS4yNjEgMy4wNjgtMS4yNjFhNC4xMSA0LjExIDAgMCAxIDMuMDEyIDEuMjYxYy44NzcuODQgMS4zMTUgMS44NDQgMS4zMTUgMy4wMTJhNC4wOCA0LjA4IDAgMCAxLTEuMzE1IDMuMDY4em0uMTUxIDE2LjMwOWEuODUuODUgMCAwIDEgLjIxMy0uNTdsNC4wMDEtNC4xNDJjLS4wOTUtLjMxNC0uMTQyLS42MzctLjE0Mi0uOTY3YTMuNjEgMy42MSAwIDAgMSAuMjYtMS4zNjRjLjE3NC0uNDMuNDE4LS44MDIuNzM0LTEuMTE2YTMuMTQgMy4xNCAwIDAgMSAxLjA2NS0uNzY5Yy4zOTUtLjE5OC44MjktLjI5OCAxLjMwMi0uMjk4YTMuMDkgMy4wOSAwIDAgMSAxLjk2NS42N2MuNTY4LjQzLjk3MS45OTIgMS4yMDcgMS42ODZIMjAuOTRjLS4yMjEgMC0uNDM0LjA3NC0uNjM5LjIyMy0uMjIxLjE0OS0uMzMxLjMzOS0uMzMxLjU3di43OTRjMCAuMjMyLjExLjQzLjMzMS41OTUuMjA1LjE0OS40MTguMjIzLjYzOS4yMjNoMi43OTRjLS4yMzcuNjYxLS42MzkgMS4yMTUtMS4yMDcgMS42NjItLjU2OC40My0xLjIyMy42NDUtMS45NjUuNjQ1LS40NTggMC0uODY4LS4wODMtMS4yMzEtLjI0OGwtMy44NTkgNC4wNjdhLjcyLjcyIDAgMCAxLS41NDQuMjIzYy0uMTg5IDAtLjM1NS0uMDc0LS40OTctLjIyM2wtMS4wODktMS4xNDFhLjczLjczIDAgMCAxLS4yMTMtLjUyMXoiIGZpbGwtcnVsZT0iZXZlbm9kZCIvPiYjeGE7PC9zdmc+;" vertex="1" parent="1">
          <mxGeometry x="2640" y="-190" width="68.57" height="80" as="geometry" />
        </mxCell>
        <mxCell id="gGudpoKi9HeAovBl45zA-52" style="edgeStyle=orthogonalEdgeStyle;rounded=0;orthogonalLoop=1;jettySize=auto;html=1;" edge="1" parent="1">
          <mxGeometry relative="1" as="geometry">
            <mxPoint x="2351" y="-151" as="sourcePoint" />
            <mxPoint x="2473" y="20.00054657253463" as="targetPoint" />
          </mxGeometry>
        </mxCell>
        <mxCell id="gGudpoKi9HeAovBl45zA-53" value="Users" style="sketch=0;outlineConnect=0;fontColor=#232F3E;gradientColor=none;fillColor=#232F3D;strokeColor=none;dashed=0;verticalLabelPosition=bottom;verticalAlign=top;align=center;html=1;fontSize=12;fontStyle=0;aspect=fixed;pointerEvents=1;shape=mxgraph.aws4.users;" vertex="1" parent="1">
          <mxGeometry x="2276" y="-190" width="78" height="78" as="geometry" />
        </mxCell>
        <mxCell id="gGudpoKi9HeAovBl45zA-54" style="edgeStyle=orthogonalEdgeStyle;rounded=0;orthogonalLoop=1;jettySize=auto;html=1;entryX=0.5;entryY=0.105;entryDx=0;entryDy=0;entryPerimeter=0;strokeColor=#FF8000;" edge="1" parent="1">
          <mxGeometry relative="1" as="geometry">
            <mxPoint x="2457" y="48" as="sourcePoint" />
            <mxPoint x="2050" y="328" as="targetPoint" />
          </mxGeometry>
        </mxCell>
        <mxCell id="gGudpoKi9HeAovBl45zA-55" value="&lt;b style=&quot;&quot;&gt;&lt;font color=&quot;#ff8000&quot;&gt;SSH&lt;/font&gt;&lt;/b&gt;" style="text;html=1;align=center;verticalAlign=middle;whiteSpace=wrap;rounded=0;" vertex="1" parent="1">
          <mxGeometry x="2504" y="-171" width="60" height="30" as="geometry" />
        </mxCell>
        <mxCell id="gGudpoKi9HeAovBl45zA-56" value="" style="endArrow=classic;html=1;rounded=0;entryX=0.5;entryY=0;entryDx=0;entryDy=0;entryPerimeter=0;" edge="1" parent="1" target="gGudpoKi9HeAovBl45zA-35">
          <mxGeometry width="50" height="50" relative="1" as="geometry">
            <mxPoint x="2421" y="910" as="sourcePoint" />
            <mxPoint x="2690" y="410" as="targetPoint" />
          </mxGeometry>
        </mxCell>
        <mxCell id="gGudpoKi9HeAovBl45zA-57" value="" style="endArrow=classic;html=1;rounded=0;entryX=0.5;entryY=0;entryDx=0;entryDy=0;entryPerimeter=0;" edge="1" parent="1" target="gGudpoKi9HeAovBl45zA-36">
          <mxGeometry width="50" height="50" relative="1" as="geometry">
            <mxPoint x="2543" y="910" as="sourcePoint" />
            <mxPoint x="2690" y="410" as="targetPoint" />
          </mxGeometry>
        </mxCell>
        <mxCell id="gGudpoKi9HeAovBl45zA-58" value="" style="endArrow=classic;html=1;rounded=0;entryX=0.5;entryY=0;entryDx=0;entryDy=0;entryPerimeter=0;" edge="1" parent="1" target="gGudpoKi9HeAovBl45zA-46">
          <mxGeometry width="50" height="50" relative="1" as="geometry">
            <mxPoint x="2660" y="910" as="sourcePoint" />
            <mxPoint x="2690" y="410" as="targetPoint" />
          </mxGeometry>
        </mxCell>
      </root>
    </mxGraphModel>
  </diagram>
</mxfile>
